#!OML:ASF F:\VICON\USERDATA\INSTALL\rory3\rory3.ASF
:FULLY-SPECIFIED
:DEGREES
535
root -12.7717 17.7905 7.11635 1.52184 -25.7887 3.59457
lowerback 4.41435 1.69156 -3.86084
upperback 2.90119 2.09752 -1.47523
thorax 0.427507 1.00228 0.562928
lowerneck -6.79957 -0.166378 -5.52482
upperneck 35.5326 0.938235 -1.12385
head 13.0078 -0.573962 0.629853
rclavicle -3.57564e-014 2.20651e-014
rhumerus -32.5181 -2.17596 -81.8204
rradius 32.5964
rwrist -5.7749
rhand -11.2646 16.3659
rfingers 7.12502
rthumb 14.7656 -13.0881
lclavicle -3.57564e-014 2.20651e-014
lhumerus -33.9466 -4.22002 81.239
lradius 40.3718
lwrist 17.6271
lhand -6.38018 27.1839
lfingers 7.12502
lthumb 19.4669 56.2294
rfemur -25.9394 17.9156 10.7971
rtibia 30.1568
rfoot -14.3694 6.30943
rtoes -13.9829
lfemur -8.95069 -9.26861 -26.1469
ltibia 23.2037
lfoot -16.4764 -3.40261
ltoes -8.53371
536
root -12.8254 17.791 7.13744 1.68988 -24.981 3.59785
lowerback 4.39242 1.63768 -3.73933
upperback 2.88293 2.03175 -1.42991
thorax 0.425604 0.971324 0.544908
lowerneck -6.65818 -0.0771622 -5.22319
upperneck 35.3499 1.09532 -1.39181
head 12.8965 -0.487259 0.493232
rclavicle 3.52843e-015 -6.16232e-015
rhumerus -32.5891 -2.27825 -81.7938
rradius 32.535
rwrist -5.71167
rhand -11.1407 16.689
rfingers 7.12502
rthumb 14.885 -12.7562
lclavicle 3.52843e-015 -6.16232e-015
lhumerus -34.0395 -3.94814 81.1709
lradius 39.6188
lwrist 17.4011
lhand -6.33837 27.1726
lfingers 7.12502
lthumb 19.5071 56.214
rfemur -25.5409 17.5629 11.0592
rtibia 29.8806
rfoot -14.5108 5.36576
rtoes -15.354
lfemur -8.95636 -9.52661 -25.9658
ltibia 23.142
lfoot -16.577 -3.87834
ltoes -9.35591
537
root -12.8788 17.7899 7.15823 1.7954 -24.1986 3.69298
lowerback 4.45232 1.65448 -3.63413
upperback 2.8286 2.05397 -1.40152
thorax 0.337794 0.985808 0.511713
lowerneck -6.53055 -0.0615846 -5.23338
upperneck 35.2969 1.12965 -1.40933
head 12.8461 -0.467631 0.493765
rclavicle -2.16924e-014 -1.98785e-016
rhumerus -32.7671 -2.4954 -81.6875
rradius 32.5311
rwrist -5.70689
rhand -11.0316 16.7195
rfingers 7.12502
rthumb 14.99 -12.718
lclavicle -2.16924e-014 -1.98785e-016
lhumerus -34.1759 -3.79114 81.1735
lradius 38.8667
lwrist 17.1179
lhand -6.18041 27.2485
lfingers 7.12502
lthumb 19.6589 56.2745
rfemur -25.0874 17.2827 11.2087
rtibia 29.5954
rfoot -14.4675 4.27579
rtoes -16.0196
lfemur -8.96077 -9.80345 -25.8819
ltibia 23.1007
lfoot -16.6539 -4.39258
ltoes -9.62511
538
root -12.9333 17.7932 7.17866 1.9215 -23.4277 3.76008
lowerback 4.55943 1.69539 -3.50025
upperback 2.728 2.10617 -1.33516
thorax 0.174654 1.01681 0.497732
lowerneck -6.35464 -0.0401345 -5.38384
upperneck 35.2891 1.16964 -1.34143
head 12.8044 -0.454019 0.552658
rclavicle -4.48322e-014 3.62782e-015
rhumerus -33.1083 -2.60134 -81.525
rradius 32.6205
rwrist -5.79584
rhand -11.202 16.692
rfingers 7.12502
rthumb 14.8259 -12.7576
lclavicle -4.48322e-014 3.62782e-015
lhumerus -34.345 -3.5268 81.2042
lradius 38.0424
lwrist 16.7175
lhand -5.96765 27.2868
lfingers 7.12502
lthumb 19.8635 56.2917
rfemur -24.7511 17.1148 11.3313
rtibia 29.3866
rfoot -14.4217 3.29158
rtoes -15.5749
lfemur -8.97007 -10.1615 -25.7377
ltibia 23.009
lfoot -16.5825 -5.04399
ltoes -8.31528
539
root -12.9892 17.8024 7.19589 2.12237 -22.6441 3.62511
lowerback 4.68198 1.68541 -3.26574
upperback 2.65552 2.09577 -1.19446
thorax 0.0346888 1.01627 0.506637
lowerneck -6.27976 0.0295888 -5.52802
upperneck 35.2891 1.28499 -1.27188
head 12.7855 -0.407336 0.620277
rclavicle -4.12938e-014 -1.01722e-016
rhumerus -33.2932 -2.5667 -81.4304
rradius 32.6261
rwrist -5.86218
rhand -11.3996 16.882
rfingers 7.12502
rthumb 14.6356 -12.5815
lclavicle -4.12938e-014 -1.01722e-016
lhumerus -34.4399 -3.21026 81.2008
lradius 37.1694
lwrist 16.4032
lhand -6.01616 27.2699
lfingers 7.12502
lthumb 19.8168 56.2797
rfemur -24.4812 16.9682 11.6515
rtibia 29.1955
rfoot -13.9755 2.57833
rtoes -14.9703
lfemur -9.00869 -10.4389 -25.3662
ltibia 22.9373
lfoot -16.5617 -5.65159
ltoes -8.14746
540
root -13.0444 17.8119 7.21098 2.37226 -21.8968 3.49716
lowerback 4.61057 1.65185 -3.05449
upperback 2.69798 2.06492 -1.07358
thorax 0.121631 1.00118 0.517128
lowerneck -6.37443 0.124919 -5.49032
upperneck 35.2748 1.45743 -1.32989
head 12.7964 -0.328001 0.613783
rclavicle 3.19733e-014 -1.88348e-014
rhumerus -33.273 -2.50849 -81.41
rradius 32.6328
rwrist -5.86899
rhand -11.432 17.1067
rfingers 7.12502
rthumb 14.6043 -12.3591
lclavicle 3.19733e-014 -1.88348e-014
lhumerus -34.3358 -2.79107 81.0849
lradius 36.2823
lwrist 16.0585
lhand -6.06739 27.1162
lfingers 7.12502
lthumb 19.7676 56.1311
rfemur -24.2894 16.7911 11.9708
rtibia 29.0746
rfoot -13.1095 1.97432
rtoes -13.9927
lfemur -9.10874 -10.7353 -25.0052
ltibia 22.876
lfoot -16.559 -6.01195
ltoes -8.98655
541
root -13.0975 17.821 7.22379 2.59773 -21.1842 3.37429
lowerback 4.45241 1.62978 -2.77769
upperback 2.84745 2.0565 -0.977363
thorax 0.369251 0.99557 0.469058
lowerneck -6.37791 0.241533 -5.30133
upperneck 35.0182 1.67009 -1.54492
head 12.6854 -0.221863 0.525025
rclavicle 1.02374e-014 -1.25234e-014
rhumerus -33.1577 -2.48879 -81.3862
rradius 32.6983
rwrist -5.91059
rhand -11.2759 16.9836
rfingers 7.12502
rthumb 14.7547 -12.4712
lclavicle 1.02374e-014 -1.25234e-014
lhumerus -34.1033 -2.32112 80.9382
lradius 35.4432
lwrist 15.7215
lhand -6.12816 27.0058
lfingers 7.12502
lthumb 19.7092 56.0267
rfemur -24.1558 16.6777 12.2727
rtibia 29.0403
rfoot -12.6531 1.42547
rtoes -11.8757
lfemur -9.23751 -11.1298 -24.6579
ltibia 22.8566
lfoot -16.478 -6.32788
ltoes -8.70752
542
root -13.1492 17.829 7.23498 2.81239 -20.5142 3.24991
lowerback 4.39794 1.62412 -2.48585
upperback 2.95662 2.06401 -0.867141
thorax 0.517221 1.00005 0.422337
lowerneck -6.32338 0.368471 -5.16577
upperneck 34.7034 1.90462 -1.77245
head 12.5392 -0.112097 0.443674
rclavicle 2.85256e-014 4.87022e-015
rhumerus -33.0445 -2.50674 -81.3306
rradius 32.699
rwrist -5.90958
rhand -11.1739 16.8811
rfingers 7.12502
rthumb 14.8529 -12.5666
lclavicle 2.85256e-014 4.87022e-015
lhumerus -33.8508 -1.71428 80.7709
lradius 34.5579
lwrist 15.2864
lhand -6.12116 27.0686
lfingers 7.12502
lthumb 19.7159 56.0887
rfemur -24.1118 16.5357 12.5653
rtibia 29.0714
rfoot -12.507 0.869652
rtoes -10.0931
lfemur -9.41013 -11.5247 -24.3162
ltibia 22.9047
lfoot -16.4212 -6.62035
ltoes -8.11375
543
root -13.1989 17.8319 7.24337 3.02317 -19.8377 3.12183
lowerback 4.50514 1.65112 -2.15475
upperback 2.98828 2.109 -0.768511
thorax 0.496459 1.02641 0.333972
lowerneck -6.37745 0.467575 -5.05218
upperneck 34.5761 2.09482 -1.93261
head 12.4969 -0.0230162 0.387034
rclavicle -5.49888e-014 3.10104e-014
rhumerus -32.9964 -2.51056 -81.2856
rradius 32.6258
rwrist -5.96748
rhand -11.1308 16.7278
rfingers 7.12502
rthumb 14.8945 -12.7168
lclavicle -5.49888e-014 3.10104e-014
lhumerus -33.6124 -1.18577 80.6159
lradius 33.6217
lwrist 14.7891
lhand -6.21242 27.0714
lfingers 7.12502
lthumb 19.6281 56.1006
rfemur -24.0798 16.2686 12.8773
rtibia 29.0995
rfoot -12.0697 0.235538
rtoes -10.5501
lfemur -9.62538 -11.9399 -23.9741
ltibia 23.0281
lfoot -16.353 -6.96544
ltoes -6.97546
544
root -13.2479 17.836 7.25121 3.23443 -19.2331 2.82952
lowerback 4.70038 1.69014 -1.71385
upperback 3.00312 2.17232 -0.595759
thorax 0.410574 1.06331 0.256166
lowerneck -6.39931 0.589871 -4.99013
upperneck 34.4933 2.30604 -2.03156
head 12.4655 0.0748407 0.36518
rclavicle -7.43952e-014 -1.59028e-015
rhumerus -32.9687 -2.44788 -81.225
rradius 32.5151
rwrist -5.94005
rhand -11.0196 16.7322
rfingers 7.12502
rthumb 15.0016 -12.7044
lclavicle -7.43952e-014 -1.59028e-015
lhumerus -33.5547 -0.616904 80.4746
lradius 32.917
lwrist 14.3894
lhand -6.27742 27.241
lfingers 7.12502
lthumb 19.5657 56.2764
rfemur -24.0039 16.0572 13.3636
rtibia 29.1228
rfoot -11.7498 -0.285286
rtoes -10.928
lfemur -9.81314 -12.3105 -23.4781
ltibia 23.1873
lfoot -16.3028 -7.18984
ltoes -6.28846
545
root -13.2972 17.8402 7.26226 3.31665 -18.7547 2.51767
lowerback 4.99356 1.75927 -1.25274
upperback 3.04384 2.27674 -0.427559
thorax 0.298095 1.12061 0.157381
lowerneck -6.29652 0.746947 -4.87014
upperneck 34.3199 2.54637 -2.14317
head 12.3702 0.195293 0.331111
rclavicle -2.15184e-014 -2.60408e-014
rhumerus -33.0487 -2.05999 -81.2725
rradius 32.5086
rwrist -6.23241
rhand -11.3397 17.004
rfingers 7.12502
rthumb 14.6932 -12.4554
lclavicle -2.15184e-014 -2.60408e-014
lhumerus -33.6349 -0.245127 80.3388
lradius 32.3083
lwrist 14.1907
lhand -6.32158 27.4574
lfingers 7.12502
lthumb 19.5232 56.4972
rfemur -23.8062 15.9358 13.8894
rtibia 29.1322
rfoot -11.7457 -0.562155
rtoes -10.3417
lfemur -9.85279 -12.6098 -23.003
ltibia 23.3808
lfoot -16.3732 -7.31293
ltoes -5.99821
546
root -13.3447 17.8415 7.27391 3.35303 -18.3091 2.41364
lowerback 5.24444 1.8175 -0.989041
upperback 3.09422 2.36172 -0.29331
thorax 0.214161 1.16546 0.135952
lowerneck -6.2486 0.92362 -4.83329
upperneck 34.152 2.82931 -2.23903
head 12.2886 0.325472 0.322767
rclavicle 3.32467e-014 5.1684e-015
rhumerus -33.1299 -1.34906 -81.3692
rradius 32.6205
rwrist -6.7962
rhand -11.9616 16.7267
rfingers 7.12502
rthumb 14.094 -12.7754
lclavicle 3.32467e-014 5.1684e-015
lhumerus -33.6578 0.306394 80.1876
lradius 31.4778
lwrist 13.782
lhand -6.3388 27.4412
lfingers 7.12502
lthumb 19.5066 56.4826
rfemur -23.6124 15.6719 14.1914
rtibia 29.1206
rfoot -11.8157 -0.697545
rtoes -9.88594
lfemur -9.91794 -12.8451 -22.755
ltibia 23.594
lfoot -16.4522 -7.42151
ltoes -5.7977
547
root -13.3915 17.8411 7.28012 3.48006 -17.7634 2.29934
lowerback 5.41877 1.85807 -0.692036
upperback 3.15315 2.42724 -0.163242
thorax 0.183759 1.20081 0.0950861
lowerneck -6.31614 1.07888 -4.87886
upperneck 34.111 3.06979 -2.20679
head 12.2814 0.436921 0.373276
rclavicle -4.37326e-015 1.98785e-015
rhumerus -33.0702 -1.00281 -81.3175
rradius 32.6232
rwrist -7.11958
rhand -12.0671 16.3253
rfingers 7.12502
rthumb 13.9923 -13.1838
lclavicle -4.37326e-015 1.98785e-015
lhumerus -33.6733 0.935062 80.0226
lradius 30.8289
lwrist 13.3087
lhand -6.4721 27.397
lfingers 7.12502
lthumb 19.3785 56.4514
rfemur -23.4705 15.2155 14.5065
rtibia 29.0903
rfoot -11.9049 -0.880418
rtoes -10.3717
lfemur -10.1126 -13.0201 -22.4582
ltibia 23.8055
lfoot -16.51 -7.65256
ltoes -5.90418
